<?xml version="1.0" encoding="UTF-8"?>
<svg version="1.1" xmlns="http://www.w3.org/2000/svg" width="1664" height="917">
<path d="M0 0 C1.3063338 -0.00247617 1.3063338 -0.00247617 2.63905819 -0.00500236 C5.54728649 -0.00930446 8.45546358 -0.00653326 11.36369312 -0.00377727 C13.48281621 -0.00542798 15.60193901 -0.00751475 17.72106129 -0.00999737 C23.55843211 -0.0155599 29.39578825 -0.01489235 35.23316088 -0.01321978 C41.57870634 -0.01248861 47.92424767 -0.01751179 54.26979136 -0.0217948 C65.39628903 -0.02849337 76.52278274 -0.03147235 87.64928234 -0.03192973 C99.58770318 -0.03243231 111.52612063 -0.03508122 123.46454036 -0.04033732 C124.2187424 -0.04066746 124.97294443 -0.04099759 125.75000107 -0.04133773 C128.8218051 -0.04268775 131.89360913 -0.04405042 134.96541316 -0.04542983 C171.32507203 -0.06172837 207.68473025 -0.0681181 244.04439215 -0.0728777 C262.15294702 -0.07526153 280.26150153 -0.07896514 298.37005612 -0.0829148 C356.46850081 -0.09557945 414.56694548 -0.10636292 472.66539152 -0.10975526 C475.44196081 -0.1099175 478.21853009 -0.11008306 480.99509937 -0.11024964 C486.56347454 -0.11058344 492.13184971 -0.11091392 497.70022488 -0.1112442 C504.21932184 -0.1116311 510.7384188 -0.11202071 517.25751577 -0.11241527 C519.12332841 -0.11252769 520.98914106 -0.1126391 522.85495371 -0.11274952 C582.76447514 -0.11629812 642.67398457 -0.13137302 702.58350143 -0.15468726 C745.63454882 -0.17143412 788.68559394 -0.18690617 831.73664463 -0.19142222 C832.62244632 -0.19151571 833.50824801 -0.1916092 834.42089218 -0.19170551 C853.86880559 -0.1937248 873.31671897 -0.19488065 892.76463249 -0.1952341 C899.72401844 -0.19537027 906.68340439 -0.19557926 913.64279034 -0.19582735 C915.37406848 -0.19588891 917.10534663 -0.19594723 918.83662477 -0.1960023 C946.39807917 -0.19692126 973.95952103 -0.20687924 1001.52097131 -0.22145979 C1029.29259081 -0.23609269 1057.06419494 -0.24110717 1084.83581761 -0.23304025 C1088.67896982 -0.23192497 1092.52212205 -0.23091428 1096.36527431 -0.22996593 C1097.49525124 -0.22968097 1097.49525124 -0.22968097 1098.64805598 -0.22939027 C1110.54508116 -0.22666349 1122.44207779 -0.23397643 1134.33909677 -0.24553929 C1146.05615865 -0.2567162 1157.77317187 -0.25682629 1169.49023542 -0.24616911 C1175.75030031 -0.24078275 1182.01026661 -0.24004883 1188.27032329 -0.25267783 C1193.97858118 -0.26409714 1199.68666112 -0.26140498 1205.39491313 -0.24801075 C1207.43432598 -0.24559869 1209.47375292 -0.24808193 1211.51315021 -0.25640723 C1230.10974722 -0.32725994 1248.62708165 1.40513376 1266.83471477 5.3151505 C1268.28781047 5.6238004 1268.28781047 5.6238004 1269.77026165 5.93868566 C1299.34809856 12.54275195 1328.40068643 24.17968918 1349.83471477 46.1276505 C1350.61459758 46.89850987 1351.3944804 47.66936925 1352.19799602 48.463588 C1361.23597143 57.8930388 1366.15168958 69.57870171 1366.10595024 82.5968039 C1366.11095429 83.42739038 1366.11595835 84.25797685 1366.12111405 85.11373261 C1366.13543177 87.89722494 1366.13559771 90.6805345 1366.13578594 93.46406102 C1366.14310338 95.47985466 1366.15126795 97.49564537 1366.16020697 99.51143247 C1366.18215926 105.05149929 1366.19155096 110.59152704 1366.19877744 116.13163006 C1366.20864797 122.10666826 1366.22983396 128.08166863 1366.24928081 134.05668187 C1366.29144721 147.80433042 1366.31622644 161.5519902 1366.33697091 175.29968393 C1366.34417577 180.05800091 1366.35210888 184.81631622 1366.36052144 189.57463121 C1366.40525992 214.89566858 1366.44477242 240.21670551 1366.46528709 265.53777528 C1366.47011351 271.4009857 1366.47500432 277.26419606 1366.47997844 283.12740636 C1366.4805895 283.85580693 1366.48120056 284.5842075 1366.48183014 285.33468082 C1366.50187094 308.94206961 1366.55623565 332.54921096 1366.63045591 356.15648722 C1366.70666913 380.44210832 1366.75370368 404.72759948 1366.7621337 429.01334391 C1366.76332635 432.44656304 1366.76482205 435.87978199 1366.766487 439.31300092 C1366.76680081 439.98864038 1366.76711462 440.66427985 1366.76743793 441.36039323 C1366.7732728 452.21278695 1366.80917633 463.06487992 1366.85612549 473.9171648 C1366.90262955 484.83534494 1366.91494318 495.75315649 1366.89525356 506.67141854 C1366.88553368 512.58151792 1366.89023101 518.49065611 1366.93448055 524.40061879 C1366.97470567 529.81914096 1366.97279204 535.23600998 1366.93837938 540.65455712 C1366.93321747 542.60686202 1366.94304917 544.55928142 1366.97002097 546.51140683 C1367.14521932 560.0311762 1364.64879989 569.04318318 1356.83471477 580.1276505 C1356.44638256 580.68852347 1356.05805034 581.24939643 1355.65795048 581.82726555 C1344.26494311 598.1866387 1330.48748579 612.82601474 1314.83471477 625.1276505 C1313.88338665 625.89593175 1312.93205852 626.664213 1311.95190227 627.4557755 C1297.62168197 638.81733123 1282.05377787 648.37976533 1265.94360149 656.99093175 C1263.96798073 658.05581833 1262.01135278 659.14869441 1260.05737102 660.2526505 C1184.40357141 702.41778788 1093.07171602 722.49363757 719.95971477 768.3151505 C718.68691158 768.37054494 718.68691158 768.37054494 717.38839519 768.42705846 C710.8718071 768.70440952 704.35405844 768.92609884 697.83471477 769.1276505 C697.17508991 769.14821885 696.51546504 769.1687872 695.83585155 769.18997884 C668.04285493 770.05017415 640.26512859 770.33168334 612.45971477 770.3151505 C611.44503124 770.31488362 610.4303477 770.31461675 609.38491619 770.31434178 C515.34545377 770.28347715 421.41152095 765.66999487 -18.16528523 670.1276505 C-19.07181843 669.71692296 -19.97835164 669.30619542 -20.91235554 668.88302159 C-63.73140318 649.41768009 -104.11614459 622.64477695 -132.22778523 584.3776505 C-132.98188679 583.35155675 -133.73598835 582.325463 -134.51294148 581.2682755 C-135.40879573 579.895658 -136.29086784 578.5140227 -137.16528523 577.1276505 C-138.14265612 575.65080339 -138.14265612 575.65080339 -139.13977188 574.14412099 C-145.72603782 563.5525661 -146.29533893 554.40252558 -146.14750874 542.1574204 C-146.15315584 540.17041074 -146.16230972 538.18340852 -146.1746363 536.19642907 C-146.19820577 530.77274939 -146.17227511 525.35029377 -146.13778734 519.92671478 C-146.10928946 514.06364307 -146.12721033 508.20068407 -146.13923848 502.33758092 C-146.15551139 490.86650822 -146.12933708 479.39590911 -146.08881225 467.92491179 C-146.05703312 458.59995559 -146.04252521 449.27510415 -146.04111874 439.95008588 C-146.0410042 439.28631592 -146.04088966 438.62254596 -146.04077164 437.93866176 C-146.04035348 435.24386719 -146.04004476 432.54907265 -146.03988118 429.85427806 C-146.03834059 405.32265749 -145.99797297 380.79126042 -145.93359578 356.25973058 C-145.87289719 333.12819758 -145.83746046 309.99681237 -145.83105671 286.86519933 C-145.83085369 286.15249421 -145.83065068 285.4397891 -145.8304415 284.70548686 C-145.82982824 282.54928235 -145.82922359 280.39307784 -145.82862073 278.23687333 C-145.82781753 275.37263031 -145.82700125 272.5083873 -145.82617676 269.6441443 C-145.8259796 268.93733367 -145.82578243 268.23052305 -145.82557929 267.50229392 C-145.81898465 244.72213737 -145.78891509 221.94200823 -145.75555312 199.16187738 C-145.74601403 192.50161401 -145.73781639 185.84135378 -145.73291957 179.18108559 C-145.7225573 165.17943738 -145.70532596 151.17789235 -145.66189494 137.17630225 C-145.64411095 131.38825605 -145.63088702 125.60030238 -145.63056767 119.81222653 C-145.63008648 114.50806832 -145.61564093 109.20413359 -145.59028015 103.90003765 C-145.58348918 101.98707117 -145.5816319 100.07407903 -145.58536502 98.16110414 C-145.61888364 77.82126176 -142.83837056 61.03424767 -128.01684773 45.94405675 C-127.06850813 45.00305132 -126.11807467 44.0641501 -125.16528523 43.1276505 C-124.3480196 42.31167394 -123.53075398 41.49569737 -122.68872273 40.65499425 C-92.36731273 11.86446977 -40.54465174 -0.11063556 0 0 Z " fill="#FEC900" transform="translate(227.16528522968292,82.87234950065613)"/>
<path d="M0 0 C23.76 0 47.52 0 72 0 C78.12531995 9.18797993 84.20625156 18.37051223 90.125 27.6875 C94.72802466 34.9292883 99.39040429 42.12173502 104.16503906 49.25170898 C106.58358782 52.87406174 108.95427299 56.52570512 111.3125 60.1875 C112.25909957 61.65365553 113.20571459 63.11980108 114.15234375 64.5859375 C114.62526855 65.3190918 115.09819336 66.05224609 115.58544922 66.80761719 C117.84588639 70.31102172 120.1102554 73.81187897 122.375 77.3125 C123.0410022 78.34238037 123.0410022 78.34238037 123.72045898 79.39306641 C126.27665242 83.34391899 128.83877255 87.29084503 131.40625 91.234375 C131.9832666 92.12084717 132.5602832 93.00731934 133.15478516 93.9206543 C134.26838461 95.63088134 135.38260213 97.34070616 136.49755859 99.05004883 C137.01141113 99.83919678 137.52526367 100.62834473 138.0546875 101.44140625 C138.72733643 102.47309937 138.72733643 102.47309937 139.41357422 103.52563477 C141.63964578 106.99766236 143.81409198 110.50254717 146 114 C146.33 76.38 146.66 38.76 147 0 C170.43 0 193.86 0 218 0 C218 74.91 218 149.82 218 227 C194.24 227 170.48 227 146 227 C140.39 218.42 134.78 209.84 129 201 C124.27527418 193.80953396 119.54794212 186.62089715 114.8125 179.4375 C114.20212891 178.51118774 113.59175781 177.58487549 112.96289062 176.63049316 C103.62062215 162.45432683 94.23664085 148.30665845 84.78833008 134.20092773 C84.15058403 133.2475074 84.15058403 133.2475074 83.49995422 132.27482605 C82.37659762 130.59564922 81.25184016 128.91740978 80.12695312 127.23925781 C77.69208178 123.53105383 75.35115172 119.76184274 73 116 C72.67 152.63 72.34 189.26 72 227 C48.24 227 24.48 227 0 227 C0 152.09 0 77.18 0 0 Z " fill="#000000" transform="translate(786,439)"/>
<path d="M0 0 C0.77251602 0.00359528 1.54503204 0.00719055 2.34095764 0.01089478 C3.55549622 0.01067574 3.55549622 0.01067574 4.79457092 0.01045227 C7.48380671 0.01115163 10.17297412 0.01894507 12.86219788 0.02676392 C14.72164878 0.02862802 16.58110018 0.03005196 18.44055176 0.03105164 C23.34458258 0.03487746 28.24858398 0.04470829 33.15260315 0.05575562 C38.15280255 0.06596836 43.15300669 0.07054896 48.1532135 0.07559204 C57.97158583 0.0863305 67.78993629 0.10340769 77.60829163 0.12442017 C81.83723693 11.11158197 86.04533258 22.08784546 89.79579163 33.24942017 C93.1693625 43.11851694 96.71010536 52.91694793 100.35829163 62.68692017 C100.61883331 63.38503815 100.879375 64.08315613 101.14781189 64.8024292 C102.28947526 67.86139179 103.43124511 70.9203146 104.57327271 73.97914124 C108.49591918 84.49257039 112.38931972 95.01683142 116.27478409 105.54405117 C117.41387378 108.63024633 118.55419707 111.71597476 119.69654846 114.80096436 C124.29816964 127.22869961 128.83322302 139.67027566 133.13172913 152.20645142 C137.68271622 165.47585591 142.55583526 178.61598776 147.48329163 191.74942017 C148.33253783 194.02014586 149.18149687 196.29097897 150.03016663 198.56192017 C151.57383411 202.69099322 153.11889384 206.81953704 154.66639709 210.94717407 C154.99573242 211.82915466 155.32506775 212.71113525 155.66438293 213.61984253 C156.27641524 215.24381573 156.89812277 216.86418825 157.53120422 218.48007202 C158.7100848 221.50819392 159.60829163 223.8433695 159.60829163 227.12442017 C134.85829163 227.12442017 110.10829163 227.12442017 84.60829163 227.12442017 C73.60829163 195.12442017 73.60829163 195.12442017 73.60829163 193.12442017 C48.52829163 193.45442017 23.44829163 193.78442017 -2.39170837 194.12442017 C-4.37170837 200.72442017 -6.35170837 207.32442017 -8.39170837 214.12442017 C-10.04170837 218.41442017 -11.69170837 222.70442017 -13.39170837 227.12442017 C-38.14170837 227.12442017 -62.89170837 227.12442017 -88.39170837 227.12442017 C-86.60775539 221.17791022 -84.85201415 215.41859263 -82.74717712 209.60879517 C-82.50106186 208.92751556 -82.25494659 208.24623596 -82.00137329 207.54431152 C-81.19681638 205.31997686 -80.38815325 203.09716239 -79.57920837 200.87442017 C-79.00438379 199.28901356 -78.42967932 197.70356341 -77.85508728 196.11807251 C-72.25117898 180.67319683 -66.56433038 165.25880049 -60.87246704 149.84617615 C-54.07175459 131.42804396 -47.33537754 112.98651992 -40.63191223 94.5328064 C-35.70475842 80.96989264 -30.74204187 67.42027521 -25.76817322 53.87442017 C-24.10472296 49.34256561 -22.44329123 44.8099734 -20.7822876 40.27722168 C-19.6079138 37.0725623 -18.43314368 33.86804983 -17.25718689 30.66397095 C-15.22597894 25.12941888 -13.19715139 19.59408084 -11.18077087 14.05410767 C-10.85302673 13.15651733 -10.52528259 12.258927 -10.18760681 11.33413696 C-9.59227484 9.70360288 -8.99903063 8.07230434 -8.40830994 6.44009399 C-6.05622328 0.01189751 -6.05622328 0.01189751 0 0 Z " fill="#000000" transform="translate(1108.3917083740234,438.8755798339844)"/>
<path d="M0 0 C18.52125 -0.04125 37.0425 -0.0825 56.125 -0.125 C61.94914551 -0.14320801 67.77329102 -0.16141602 73.77392578 -0.18017578 C80.94702148 -0.18920898 80.94702148 -0.18920898 84.31686401 -0.19088745 C86.64458992 -0.19393628 88.97231288 -0.20092348 91.30001831 -0.21115112 C117.62909238 -0.32094304 143.90427712 1.33898513 163.80078125 20.7421875 C164.52652344 21.48726563 165.25226563 22.23234375 166 23 C166.69480469 23.66257812 167.38960937 24.32515625 168.10546875 25.0078125 C182.44565105 39.59763047 186.29429517 59.75365703 186.2421875 79.45361328 C185.97275106 99.87352768 178.68607369 117.28032052 164.8359375 132.35546875 C148.22505785 148.49413276 124.98243896 155.23539574 102.25 155.09765625 C101.45207031 155.09664917 100.65414063 155.09564209 99.83203125 155.09460449 C96.88800594 155.08942332 93.94400133 155.0754626 91 155.0625 C84.4 155.041875 77.8 155.02125 71 155 C71 178.76 71 202.52 71 227 C47.57 227 24.14 227 0 227 C0 152.09 0 77.18 0 0 Z " fill="#000000" transform="translate(1284,439)"/>
<path d="M0 0 C1.33611328 0.41378906 1.33611328 0.41378906 2.69921875 0.8359375 C20.75024114 6.86152843 35.43207346 18.58638842 44.78515625 35.1640625 C50.11606276 45.93065992 52 56.02138409 52 68 C26.59 68 1.18 68 -25 68 C-25.99 63.545 -25.99 63.545 -27 59 C-29.26664444 55.44892371 -31.15255368 53.61186276 -35 52 C-39.68992951 51.20296368 -43.00602002 51.37115552 -47.0625 53.9375 C-49.29220478 57.46187207 -49.5591168 59.54629325 -49.56640625 63.62109375 C-48.61016872 67.63729136 -46.70956178 70.70272447 -43.39038086 73.22143555 C-41.36511919 74.46035933 -39.30683721 75.55466892 -37.1875 76.625 C-36.38070801 77.04249512 -35.57391602 77.45999023 -34.74267578 77.89013672 C-25.53985712 82.4856349 -15.91073156 86.03015828 -6.30273438 89.66723633 C20.76325865 99.92117956 20.76325865 99.92117956 32 109 C32.82757812 109.65355469 33.65515625 110.30710937 34.5078125 110.98046875 C43.95825146 118.9136354 51.57309916 128.69214572 54 141 C54.16838379 141.77375977 54.33676758 142.54751953 54.51025391 143.34472656 C57.76033038 160.96577927 54.50271228 179.18754336 44.9453125 194.2890625 C32.23142315 212.00681191 13.03183814 223.20868519 -8.38671875 227.08203125 C-15.76808612 228.26286836 -23.10260039 228.35271777 -30.5625 228.3125 C-31.61556839 228.30976578 -31.61556839 228.30976578 -32.68991089 228.30697632 C-61.10815875 228.18300965 -86.77534695 221.82041752 -108.24609375 201.91796875 C-116.6722733 193.06473137 -121.87201504 182.87706958 -125 171.1875 C-125.31167114 170.02371826 -125.31167114 170.02371826 -125.62963867 168.83642578 C-127.00183955 163.1950888 -127 159.20018761 -127 153 C-101.92 153 -76.84 153 -51 153 C-50.01 156.96 -49.02 160.92 -48 165 C-45.73839927 167.81321066 -44.18115063 169.40942469 -41 171 C-38.89946284 171.14901491 -36.79312175 171.22138453 -34.6875 171.25 C-33.55699219 171.27578125 -32.42648437 171.3015625 -31.26171875 171.328125 C-27.68729849 170.9685426 -25.85189674 170.14022123 -23 168 C-21.86442762 165.72885524 -21.76915682 164.27706381 -21.6875 161.75 C-21.65011719 161.00234375 -21.61273437 160.2546875 -21.57421875 159.484375 C-22.19392885 155.86845184 -23.69921325 153.8372592 -26 151 C-35.71480542 144.32274393 -47.57295191 140.87187676 -58.58798218 136.92089844 C-107.43902634 119.37229572 -107.43902634 119.37229572 -120.015625 97.08984375 C-128.70551312 78.64107333 -129.79984152 58.23444267 -123 39 C-115.77805642 21.8780669 -102.02764315 9.79891526 -85.15234375 2.5703125 C-58.90106253 -7.85346055 -26.83331962 -8.609191 0 0 Z " fill="#000000" transform="translate(706,440)"/>
<path d="M0 0 C107.96226415 0 107.96226415 0 124 15 C124.63679687 15.58394531 125.27359375 16.16789062 125.9296875 16.76953125 C134.47467625 25.47955198 136.46335702 35.80745932 136.43139648 47.55615234 C136.12574385 58.6165704 132.51843984 67.91965922 125.0703125 76.109375 C121.45034887 79.4151531 117.27493298 81.65327106 113 84 C112.01 84.66 111.02 85.32 110 86 C110.76183594 86.3403125 111.52367187 86.680625 112.30859375 87.03125 C125.48176783 93.21491224 133.91138312 101.20419425 139 115 C141.86871186 128.48294575 140.4410411 142.15341109 133.30078125 154.01171875 C125.95478865 165.24027801 114.70162489 171.44932449 101.76589966 174.53248596 C91.46270483 176.54563927 81.15261022 176.25231448 70.703125 176.1953125 C68.88851037 176.19236571 67.07389402 176.19032919 65.25927734 176.18920898 C58.58949202 176.17879536 51.91974327 176.15087302 45.25 176.125 C30.3175 176.08375 15.385 176.0425 0 176 C0 117.92 0 59.84 0 0 Z " fill="#020100" transform="translate(606,214)"/>
<path d="M0 0 C14.19 0 28.38 0 43 0 C43 61.05 43 122.1 43 185 C28.81 185 14.62 185 0 185 C-0.495 176.09 -0.495 176.09 -1 167 C-1.94875 168.175625 -2.8975 169.35125 -3.875 170.5625 C-13.132599 181.06559927 -24.88999744 186.2612733 -38.7421875 187.2734375 C-53.90529691 187.80016376 -66.72988877 184.28278023 -79 175 C-79.72703125 174.45472656 -80.4540625 173.90945313 -81.203125 173.34765625 C-93.7856271 163.1423826 -101.67655186 146.14543321 -103.79711914 130.23583984 C-105.1707041 115.09830546 -105.42165155 99.34478638 -100 85 C-99.566875 83.65035156 -99.566875 83.65035156 -99.125 82.2734375 C-96.70160227 75.28453154 -92.52814361 69.7813874 -88 64 C-87.36771484 63.11828125 -87.36771484 63.11828125 -86.72265625 62.21875 C-79.6807549 52.79613467 -66.43687879 45.9573913 -55 44 C-37.85050611 42.53582151 -21.77967221 43.63279266 -8 55 C-5.69 57.64 -3.38 60.28 -1 63 C-0.67 42.21 -0.34 21.42 0 0 Z " fill="#020100" transform="translate(1132,205)"/>
<path d="M0 0 C1.57587891 -0.01160156 1.57587891 -0.01160156 3.18359375 -0.0234375 C13.10776267 0.00109691 22.3492321 1.19789937 31.4375 5.3125 C32.11425781 5.61559082 32.79101562 5.91868164 33.48828125 6.23095703 C50.15776509 14.02708591 62.41255882 27.68837727 68.85546875 44.86328125 C75.113999 64.81375854 74.84646456 87.32396899 65.25 106.1875 C55.50993433 122.80778227 41.33246755 135.38240814 22.5625 140.73046875 C21.881875 140.90191406 21.20125 141.07335937 20.5 141.25 C19.819375 141.45238281 19.13875 141.65476562 18.4375 141.86328125 C-1.09461597 146.84804001 -22.95796001 142.59055833 -40.4375 133.25 C-56.74640007 123.28697544 -66.02102474 107.97789589 -71.1796875 89.86328125 C-75.88757 69.32272542 -72.26543852 48.16316348 -61.5 30.25 C-51.35680278 15.43158162 -36.12987536 4.72355789 -18.40234375 1.125 C-12.25348297 0.07807541 -6.22502854 -0.04582843 0 0 Z " fill="#010100" transform="translate(834.5,248.75)"/>
<path d="M0 0 C1.532381 -0.01656453 3.06468458 -0.04386187 4.59667969 -0.08203125 C6.81973839 -0.13703378 9.04099944 -0.15870294 11.26464844 -0.17333984 C11.94296722 -0.19600922 12.62128601 -0.21867859 13.32015991 -0.24203491 C17.66031046 -0.22292601 20.41656342 0.78138942 23.67127109 3.66449034 C26.19421507 7.04651519 25.74253793 10.97108079 25.67715454 15.03337097 C25.68510335 16.01472356 25.69305217 16.99607614 25.70124185 18.00716668 C25.72050886 21.299392 25.69684241 24.58990269 25.67333984 27.88208008 C25.67819531 30.24095298 25.68563361 32.59982178 25.69546509 34.9586792 C25.71430094 41.37022621 25.69541497 47.7811635 25.66880083 54.19266295 C25.6459117 60.2224182 25.65339829 66.25218738 25.65720586 72.28197102 C25.66358581 84.23617937 25.64025459 96.19014944 25.60107422 108.14428711 C25.56310845 119.73094957 25.5488879 131.31733252 25.56005859 142.90405273 C25.57219329 155.52795358 25.5717819 168.15173149 25.54908693 180.77562219 C25.54667246 182.12379952 25.54426048 183.47197685 25.54185104 184.82015419 C25.54064397 185.4834227 25.53943689 186.14669122 25.53819323 186.83005878 C25.53045369 191.49119905 25.53133525 196.15226485 25.53502274 200.81340599 C25.53879851 207.09833019 25.52250425 213.38289711 25.49090195 219.66773987 C25.48243737 221.97109817 25.48070093 224.27449279 25.48628235 226.57785988 C25.49275909 229.72959694 25.4744816 232.88027763 25.45010376 236.03190613 C25.46144173 237.38967542 25.46144173 237.38967542 25.47300875 238.77487439 C25.36881023 246.42446935 23.29265211 253.52293297 18.67871094 259.72509766 C11.12700249 266.93354663 2.88120972 267.49802382 -7.10644531 267.54296875 C-8.11351532 267.55114624 -9.12058533 267.55932373 -10.15817261 267.56774902 C-13.48337211 267.59251885 -16.80852933 267.60909286 -20.13378906 267.62353516 C-21.27034943 267.62885883 -22.40690979 267.63418251 -23.57791138 267.63966751 C-29.58774134 267.66635579 -35.59755079 267.68574904 -41.60742188 267.70019531 C-46.58351914 267.71356272 -51.55920909 267.74147351 -56.53515625 267.78222656 C-62.54505239 267.83144433 -68.55457765 267.85630215 -74.56466675 267.86342239 C-76.85484875 267.87014691 -79.14502209 267.88539991 -81.43508911 267.9093132 C-84.63587967 267.94084389 -87.83522848 267.94101992 -91.03613281 267.93359375 C-92.45610062 267.95820175 -92.45610062 267.95820175 -93.90475464 267.98330688 C-98.49144808 267.93968796 -100.42596589 267.85787261 -104.13598633 264.93862915 C-107.25179792 260.77112797 -107.24535249 257.73168448 -107.27441406 252.67431641 C-107.28011414 251.9121431 -107.28581421 251.14996979 -107.29168701 250.36470032 C-107.30113987 248.74990223 -107.30767213 247.13508483 -107.31152344 245.52026367 C-107.3212104 243.05759674 -107.35222209 240.5957711 -107.38378906 238.13330078 C-107.39032116 236.56364427 -107.39557082 234.9939818 -107.39941406 233.42431641 C-107.41176086 232.69081467 -107.42410767 231.95731293 -107.43682861 231.20158386 C-107.41748731 226.72962141 -106.85254737 223.88777024 -104.07128906 220.35009766 C-100.39515951 217.89934462 -98.5860562 218.09376816 -94.20068359 218.07885742 C-93.15868805 218.0710173 -93.15868805 218.0710173 -92.09564209 218.0630188 C-90.58805728 218.05278228 -89.08043717 218.04699899 -87.57281876 218.04513741 C-85.1850866 218.04147474 -82.79777017 218.02475084 -80.41012573 218.00437927 C-73.62196589 217.94895995 -66.83374451 217.91829614 -60.04541016 217.89379883 C-55.89211248 217.8779072 -51.73910922 217.84767025 -47.5859642 217.80903435 C-46.00479131 217.79739696 -44.42356572 217.79145411 -42.84235001 217.79135323 C-40.6281494 217.79116076 -38.41475822 217.77286486 -36.20068359 217.75073242 C-34.941763 217.74566177 -33.68284241 217.74059113 -32.38577271 217.73536682 C-28.7984726 217.318386 -26.89812504 216.57007694 -24.07128906 214.35009766 C-22.82020753 210.59685306 -22.93132634 207.10495145 -22.93998718 203.19569397 C-22.93787147 202.35474117 -22.93575575 201.51378837 -22.93357593 200.64735216 C-22.92756695 197.81916908 -22.92857671 194.9910305 -22.92944336 192.1628418 C-22.92641251 190.13935775 -22.92289127 188.11587438 -22.91891479 186.09239197 C-22.91102056 181.72986335 -22.90587895 177.36734292 -22.90262413 173.00480843 C-22.89672155 166.11023063 -22.88018907 159.21570466 -22.86128235 152.32115173 C-22.8549449 149.96245292 -22.84861927 147.60375407 -22.84230518 145.2450552 C-22.83913937 144.06378485 -22.83597356 142.88251449 -22.83271182 141.66544807 C-22.79059948 125.61022648 -22.75764647 109.55502901 -22.74536133 93.49975586 C-22.73699315 82.6748496 -22.71454958 71.85007153 -22.67600566 61.02522939 C-22.6562048 55.2939952 -22.64385382 49.56295281 -22.64883995 43.83168221 C-22.6534709 38.44309086 -22.63976617 33.05486352 -22.61182785 27.6663456 C-22.60489015 25.68620244 -22.60481704 23.70602185 -22.61202812 21.72587967 C-22.62086475 19.02731051 -22.60530766 16.32995521 -22.58354187 13.63148499 C-22.59620568 12.44972855 -22.59620568 12.44972855 -22.60912532 11.24409825 C-22.55579038 7.68038851 -22.36965184 5.73414733 -20.15099812 2.87831783 C-14.6088256 -1.19420368 -6.6157277 0.05237097 0 0 Z " fill="#000000" transform="translate(441.0712890625,216.64990234375)"/>
<path d="M0 0 C0.98670685 0.00022659 0.98670685 0.00022659 1.99334717 0.00045776 C13.4668558 0.05214337 23.11690196 1.57127658 33.4375 6.5625 C34.54738281 7.08070313 35.65726563 7.59890625 36.80078125 8.1328125 C51.55256716 15.89296418 61.53156889 29.2037797 67.4375 44.5625 C69.4375 53.5625 69.4375 53.5625 69.4375 82.5625 C37.7575 82.5625 6.0775 82.5625 -26.5625 82.5625 C-24.30914732 92.70258707 -22.96596846 98.42444491 -14.66015625 104.3359375 C-7.84298846 108.32213989 -1.21392376 108.63403217 6.421875 106.875 C12.48238634 104.90942876 15.94664722 102.91514093 19.4375 97.5625 C19.7675 96.9025 20.0975 96.2425 20.4375 95.5625 C35.6175 95.5625 50.7975 95.5625 66.4375 95.5625 C62.14743805 111.29272713 54.07603193 123.86717048 40.23046875 132.96875 C34.84149651 136.04385584 29.24864064 138.4078074 23.4375 140.5625 C22.05691406 141.07683594 22.05691406 141.07683594 20.6484375 141.6015625 C3.0005346 147.04342305 -17.55356145 144.26526332 -33.9375 136.3125 C-51.68732356 126.78279904 -61.55783426 112.24878134 -67.765625 93.421875 C-72.11034006 77.83201508 -71.58795943 57.59028276 -65.5625 42.5625 C-65.088125 41.37914062 -64.61375 40.19578125 -64.125 38.9765625 C-57.02121459 23.23211503 -44.73308744 12.08282187 -29.1640625 4.921875 C-19.36107196 1.22183085 -10.4860047 -0.02066011 0 0 Z " fill="#020100" transform="translate(1266.5625,248.4375)"/>
<path d="M0 0 C6.49233322 1.58995916 10.59455229 7.18635115 14.88476562 12.02709961 C34.31490091 33.87905254 63.90484375 48.31114622 93.0625 50.75 C107.49216932 51.35517159 122.10811554 51.89733661 136.0625 47.75 C136.76487793 47.54600586 137.46725586 47.34201172 138.19091797 47.13183594 C156.96258933 41.59344718 172.20100385 33.10636358 186.71875 19.875 C188.87165609 17.92303181 191.01464503 15.98206413 193.25 14.125 C193.82105469 13.63773438 194.39210938 13.15046875 194.98046875 12.6484375 C198.46042957 11.14676585 200.4539721 11.66027736 204.0625 12.75 C206.93665072 15.02553963 209.28366079 17.67943651 211.6875 20.4375 C212.32945312 21.14583984 212.97140625 21.85417969 213.6328125 22.58398438 C215.46705493 24.6193169 217.26904837 26.678715 219.0625 28.75 C219.57441895 29.32903076 220.08633789 29.90806152 220.61376953 30.50463867 C222.74183269 32.95983373 223.99994904 34.45601047 224.6875 37.6875 C222.07522873 50.48762922 204.09372542 60.72968175 194.0625 67.75 C183.99230266 74.30448249 173.12440023 79.14385816 162.0625 83.75 C160.99128906 84.2553125 159.92007813 84.760625 158.81640625 85.28125 C153.93462442 87.37549943 148.74308004 88.30041106 143.5625 89.375 C142.55574219 89.5915625 141.54898438 89.808125 140.51171875 90.03125 C120.12970727 94.3587544 98.63003051 94.00292274 78.0625 90.75 C76.84691406 90.56695313 75.63132812 90.38390625 74.37890625 90.1953125 C57.33339519 87.2228983 41.16550415 81.10127097 26.0625 72.75 C24.98484375 72.1621875 23.9071875 71.574375 22.796875 70.96875 C7.77999694 62.49769058 -5.3511925 51.46700985 -17.5625 39.375 C-18.45062378 38.50077393 -18.45062378 38.50077393 -19.35668945 37.60888672 C-26.80412252 30.10633552 -26.80412252 30.10633552 -27.125 24.4375 C-25.40859701 19.10761702 -22.06925878 16.38680851 -17.9375 12.75 C-17.256875 12.12738281 -16.57625 11.50476563 -15.875 10.86328125 C-13.9303854 9.11236849 -11.95192479 7.41990546 -9.9375 5.75 C-9.02291016 4.98429688 -9.02291016 4.98429688 -8.08984375 4.203125 C-5.47917294 2.16049026 -3.22006699 0.82214476 0 0 Z " fill="#010100" transform="translate(270.9375,565.25)"/>
<path d="M0 0 C0 14.85 0 29.7 0 45 C-9.9 45.495 -9.9 45.495 -20 46 C-28.6227145 47.92635111 -34.5786057 50.63252234 -39.921875 57.828125 C-42.72292713 63.47082423 -43.25414723 69.39813373 -43.31884766 75.609375 C-43.33391609 76.6791433 -43.33391609 76.6791433 -43.34928894 77.77052307 C-43.37985544 80.09700815 -43.39708109 82.42337963 -43.4140625 84.75 C-43.43279559 86.3752539 -43.45237057 88.0004983 -43.4727478 89.62573242 C-43.52384906 93.88021208 -43.56359181 98.1347232 -43.60089111 102.38934326 C-43.64814755 107.50655762 -43.70965018 112.6236186 -43.76873779 117.7407074 C-43.85668147 125.49374226 -43.92663759 133.24675173 -44 141 C-58.19 141 -72.38 141 -87 141 C-87 94.8 -87 48.6 -87 1 C-72.81 1 -58.62 1 -44 1 C-43.67 8.26 -43.34 15.52 -43 23 C-41.6078125 21.02 -41.6078125 21.02 -40.1875 19 C-30.00960468 5.91707788 -16.17361112 0 0 0 Z " fill="#020200" transform="translate(1016,249)"/>
<path d="M0 0 C0 14.85 0 29.7 0 45 C-6.27 45.33 -12.54 45.66 -19 46 C-26.57133998 47.66403076 -33.98586919 50.08162995 -38.875 56.4375 C-41.27959756 61.91463889 -42.30013597 66.68881923 -42.31884766 72.65771484 C-42.33391609 73.77093613 -42.33391609 73.77093613 -42.34928894 74.90664673 C-42.37999488 77.34140298 -42.39712068 79.77604991 -42.4140625 82.2109375 C-42.43278431 83.90631035 -42.45235847 85.60167398 -42.4727478 87.29702759 C-42.52396808 91.74552972 -42.56364772 96.19406202 -42.60089111 100.6427002 C-42.64805299 105.98763379 -42.70960738 111.33241883 -42.76873779 116.67723083 C-42.85682684 124.78476026 -42.9266792 132.89226299 -43 141 C-57.19 141 -71.38 141 -86 141 C-86 95.13 -86 49.26 -86 2 C-71.81 2 -57.62 2 -43 2 C-42.67 8.6 -42.34 15.2 -42 22 C-40.989375 20.80375 -39.97875 19.6075 -38.9375 18.375 C-28.3972303 6.44895779 -16.0955633 0 0 0 Z " fill="#010100" transform="translate(1445,249)"/>
<path d="M0 0 C8.10061198 6.02137478 13.80540738 12.25639857 15.67578125 22.36328125 C17.13604366 34.23890928 16.05954692 45.47281048 8.8125 55.4375 C-0.47012833 63.89500582 -8.86930241 65.71438842 -21.01123047 65.18359375 C-25.00029768 64.81534203 -27.8603654 63.39397138 -31 61 C-32.051875 60.2575 -33.10375 59.515 -34.1875 58.75 C-42.06857733 51.04405773 -45.26707791 42.0320136 -45.4375 31.125 C-45.34946691 20.88461083 -42.86662227 13.08058898 -35.72265625 5.6484375 C-26.0539342 -3.60371829 -12.28410723 -6.92893593 0 0 Z " fill="#FCC700" transform="translate(1116,289)"/>
<path d="M0 0 C7.49316507 5.05157196 11.18144953 11.54434858 14 20 C15.02071276 32.78210757 15.25593392 45.8153068 6.80078125 56.1796875 C0.64536549 62.40186482 -6.15407162 65.60919932 -14.875 66.3125 C-22.67489847 66.04146106 -28.57769244 63.29460837 -34.2109375 57.953125 C-43.10495806 48.24349557 -43.57395353 37.37620102 -43.3046875 24.80078125 C-42.88117721 15.72331079 -39.52349683 9.44157589 -33.25390625 2.91796875 C-24.46895472 -4.55761393 -10.02291686 -5.9710994 0 0 Z " fill="#FCC800" transform="translate(849,289)"/>
<path d="M0 0 C1.15139465 -0.01891296 1.15139465 -0.01891296 2.3260498 -0.03820801 C3.14593384 -0.03011108 3.96581787 -0.02201416 4.81054688 -0.01367188 C6.08629578 -0.01941223 6.08629578 -0.01941223 7.38781738 -0.02526855 C9.18319891 -0.02798646 10.97862012 -0.0206337 12.77392578 -0.00390625 C15.5201048 0.01750645 18.26366785 -0.00371059 21.00976562 -0.02929688 C22.75586514 -0.02665358 24.50196303 -0.02152855 26.24804688 -0.01367188 C27.06793091 -0.0217688 27.88781494 -0.02986572 28.73254395 -0.03820801 C29.50014038 -0.02559937 30.26773682 -0.01299072 31.05859375 0 C32.06641907 0.00477356 32.06641907 0.00477356 33.09460449 0.00964355 C36.02021814 0.77773481 37.20904847 2.13857484 39.02929688 4.51757812 C39.53050232 7.21154785 39.53050232 7.21154785 39.53100586 10.32421875 C39.54038681 11.49223022 39.54976776 12.6602417 39.55943298 13.86364746 C39.54819901 15.12100708 39.53696503 16.3783667 39.52539062 17.67382812 C39.52684586 18.96824829 39.52830109 20.26266846 39.52980042 21.59631348 C39.53118337 24.33345923 39.51864503 27.07008032 39.49584961 29.80712891 C39.46746425 33.31114392 39.47020316 36.8142875 39.48293972 40.318367 C39.49157713 43.66611165 39.47644751 47.01359817 39.46289062 50.36132812 C39.46582626 51.61868774 39.4687619 52.87604736 39.4717865 54.17150879 C39.45276024 55.923526 39.45276024 55.923526 39.43334961 57.7109375 C39.42794662 58.7381189 39.42254364 59.76530029 39.41697693 60.8236084 C38.9688475 63.93763788 38.23258447 65.29551042 36.02929688 67.51757812 C33.40252398 68.32304167 31.09414818 68.85950432 28.40429688 69.26757812 C27.65881592 69.3882666 26.91333496 69.50895508 26.14526367 69.63330078 C20.71708803 70.43726437 15.32709303 70.82717605 9.84179688 70.89257812 C9.14812012 70.90643555 8.45444336 70.92029297 7.73974609 70.93457031 C3.08212833 70.89143371 -0.2051367 70.29781246 -3.97070312 67.51757812 C-8.38956394 60.7417121 -8.55868032 53.82884074 -8.50195312 45.96679688 C-8.50578003 44.79043167 -8.50960693 43.61406647 -8.5135498 42.40205383 C-8.51625875 39.93038063 -8.50896939 37.45867826 -8.4921875 34.98706055 C-8.47066895 31.19906282 -8.49207506 27.41294113 -8.51757812 23.625 C-8.51493655 21.21809477 -8.50981511 18.81119071 -8.50195312 16.40429688 C-8.51005005 15.27199142 -8.51814697 14.13968597 -8.52648926 12.97306824 C-8.51388062 11.92129898 -8.50127197 10.86952972 -8.48828125 9.78588867 C-8.48350769 8.40097481 -8.48350769 8.40097481 -8.4786377 6.98808289 C-7.53305816 2.3889497 -4.64182428 0.02198598 0 0 Z " fill="#000000" transform="translate(240.970703125,285.482421875)"/>
<path d="M0 0 C5.40858151 -0.09219173 10.81440123 -0.17171712 16.22314453 -0.21972656 C18.06015293 -0.23975373 19.89709829 -0.26698382 21.73388672 -0.30175781 C24.38525002 -0.35067065 27.03576541 -0.37305763 29.6875 -0.390625 C30.49928711 -0.41127014 31.31107422 -0.43191528 32.14746094 -0.45318604 C38.45493712 -0.45562852 43.84944566 1.01803677 48.52954102 5.44769287 C53.0461071 10.6586267 54.48458616 14.61616639 54.3046875 21.40234375 C53.71231227 26.45272234 52.06085942 30.30232482 48.09375 33.5703125 C41.83452534 37.65749278 36.71275076 38.14507902 29.296875 38.09765625 C28.5538916 38.09664917 27.8109082 38.09564209 27.04541016 38.09460449 C24.28025765 38.08938776 21.51512721 38.0754265 18.75 38.0625 C12.5625 38.041875 6.375 38.02125 0 38 C0 25.46 0 12.92 0 0 Z " fill="#FCC800" transform="translate(649,317)"/>
<path d="M0 0 C5.48625 -0.04125 10.9725 -0.0825 16.625 -0.125 C18.34541504 -0.14320801 20.06583008 -0.16141602 21.83837891 -0.18017578 C23.21777027 -0.18602267 24.59716512 -0.19111776 25.9765625 -0.1953125 C26.67998779 -0.20554443 27.38341309 -0.21577637 28.1081543 -0.22631836 C35.25051228 -0.22882181 40.37195692 1.62263316 46 6 C50.31776723 11.77066521 49.74601571 18.0912458 49 25 C47.98602616 27.72381209 47.04436186 28.83881746 45 31 C44.54544434 31.50813232 44.09088867 32.01626465 43.62255859 32.53979492 C36.48501639 38.96315332 24.23099424 37.34062568 15.375 37.1875 C10.30125 37.125625 5.2275 37.06375 0 37 C0 24.79 0 12.58 0 0 Z " fill="#FAC600" transform="translate(649,249)"/>
<path d="M0 0 C6.1875 -0.0928125 6.1875 -0.0928125 12.5 -0.1875 C13.78455078 -0.21481201 15.06910156 -0.24212402 16.39257812 -0.27026367 C23.76704611 -0.3236104 30.18837156 -0.2474785 36.05859375 4.75390625 C36.74115234 5.64916016 36.74115234 5.64916016 37.4375 6.5625 C37.91058594 7.16191406 38.38367187 7.76132812 38.87109375 8.37890625 C42.57180386 13.69307475 41.59120309 21.73356943 41 28 C39.76023668 32.88820966 37.86591375 35.31080334 33.9375 38.4375 C29.55452313 40.76887067 26.49228711 41.1198746 21.58203125 41.09765625 C19.88784058 41.09390991 19.88784058 41.09390991 18.15942383 41.09008789 C16.00769653 41.07643188 16.00769653 41.07643188 13.8125 41.0625 C9.254375 41.041875 4.69625 41.02125 0 41 C0 27.47 0 13.94 0 0 Z " fill="#FDC900" transform="translate(1356,496)"/>
<path d="M0 0 C0.66 0 1.32 0 2 0 C2.21914062 0.72960937 2.43828125 1.45921875 2.6640625 2.2109375 C4.67283015 8.82517243 6.78729137 15.3892197 9 21.9375 C11.1962174 28.44354659 13.1576303 34.97796061 14.98828125 41.59765625 C16.45451054 46.52848911 18.2369551 51.32298599 20.046875 56.13671875 C21 59 21 59 21 62 C7.8 62 -5.4 62 -19 62 C-16.38420474 51.53681898 -13.67598389 41.64435389 -10.0625 31.5625 C-6.37612593 21.12512878 -2.9347501 10.67322272 0 0 Z " fill="#FAC600" transform="translate(1143,516)"/>
<path d="M0 0 C6.09241931 3.60468143 11.07673383 8.33141866 12.9375 15.3125 C13.5 19 13.5 19 13.5 22 C-3.99 22 -21.48 22 -39.5 22 C-38.43154977 13.45239815 -36.89835141 8.58162177 -30.20703125 3.1328125 C-21.32996999 -2.92038751 -10.04673108 -4.61313692 0 0 Z " fill="#F5C200" transform="translate(1279.5,285)"/>
</svg>
